<svg xmlns="http://www.w3.org/2000/svg" viewBox="0 0 100 100">
  <defs>
    <linearGradient id="grad1" x1="0%" y1="0%" x2="100%" y2="100%">
      <stop offset="0%" style="stop-color:#4a9eff;stop-opacity:1" />
      <stop offset="100%" style="stop-color:#2e8b57;stop-opacity:1" />
    </linearGradient>
  </defs>
  <!-- Feuille -->
  <path d="M50 10 Q65 30 70 50 Q65 70 50 90 Q35 70 30 50 Q35 30 50 10" 
        fill="url(#grad1)" 
        stroke="#1a1f2e" 
        stroke-width="2"/>
  <!-- Nervure centrale -->
  <line x1="50" y1="10" x2="50" y2="90" 
        stroke="#1a1f2e" 
        stroke-width="2"/>
  <!-- Nervures latérales -->
  <path d="M50 30 Q45 35 40 40" 
        stroke="#1a1f2e" 
        stroke-width="1.5" 
        fill="none"/>
  <path d="M50 30 Q55 35 60 40" 
        stroke="#1a1f2e" 
        stroke-width="1.5" 
        fill="none"/>
  <path d="M50 50 Q45 55 40 60" 
        stroke="#1a1f2e" 
        stroke-width="1.5" 
        fill="none"/>
  <path d="M50 50 Q55 55 60 60" 
        stroke="#1a1f2e" 
        stroke-width="1.5" 
        fill="none"/>
  <path d="M50 70 Q45 72 42 75" 
        stroke="#1a1f2e" 
        stroke-width="1.5" 
        fill="none"/>
  <path d="M50 70 Q55 72 58 75" 
        stroke="#1a1f2e" 
        stroke-width="1.5" 
        fill="none"/>
</svg>

